<svg xmlns="http://www.w3.org/2000/svg" xmlns:xlink="http://www.w3.org/1999/xlink" width="1238" zoomAndPan="magnify" viewBox="0 0 928.5 223.499994" height="298" preserveAspectRatio="xMidYMid meet" version="1.0"><defs><clipPath id="ff720cdfe1"><path d="M 0.785156 0 L 221 0 L 221 220 L 0.785156 220 Z M 0.785156 0 " clip-rule="nonzero"/></clipPath><clipPath id="d2c65bbb92"><path d="M 0.785156 0 L 221 0 L 221 220 L 0.785156 220 Z M 0.785156 0 " clip-rule="nonzero"/></clipPath></defs><path fill="#ffffff" d="M 314.496094 171.785156 C 296.042969 171.785156 288.882812 157.277344 293.777344 129.558594 L 294.40625 125.992188 C 299.296875 98.273438 311.578125 83.769531 330.027344 83.769531 C 344.6875 83.769531 351.726562 92.4375 353.90625 106.21875 L 355.75 105.570312 C 354.449219 95.195312 354.570312 87.980469 355.988281 79.957031 L 360.0625 56.859375 L 380.078125 56.859375 L 360.054688 170.324219 L 340.121094 170.324219 C 340.949219 166.109375 343.550781 159.300781 347.914062 149.980469 L 346.296875 149.332031 C 339.070312 163.679688 329.074219 171.785156 314.496094 171.785156 Z M 324.746094 158.492188 C 336.03125 158.492188 343.871094 148.605469 347.132812 130.125 L 347.949219 125.507812 C 351.222656 106.945312 346.886719 96.976562 335.605469 96.976562 C 324.976562 96.976562 318.199219 105.972656 314.898438 124.695312 L 313.796875 130.9375 C 310.507812 149.578125 314.121094 158.492188 324.746094 158.492188 Z M 414.175781 74.851562 L 392.347656 74.851562 L 395.296875 58.15625 L 417.125 58.15625 Z M 396.421875 170.324219 L 376.324219 170.324219 L 391.34375 85.226562 L 411.441406 85.226562 Z M 443.53125 148.199219 L 456.929688 149.738281 C 470.332031 151.277344 486.371094 154.683594 482.964844 173.972656 C 479.804688 191.882812 465.082031 200.636719 437.734375 200.636719 C 412.035156 200.636719 400.757812 194.070312 403.261719 179.886719 C 404.804688 171.132812 410.488281 165.542969 421.707031 163.109375 L 421.964844 161.652344 C 414.746094 159.140625 410.277344 154.601562 411.664062 146.738281 C 412.964844 139.363281 418.75 134.582031 428.519531 133.367188 L 428.792969 131.828125 C 422.34375 127.289062 419.773438 119.914062 421.507812 110.109375 C 424.539062 92.925781 438.28125 83.199219 459.695312 83.199219 C 464.226562 83.199219 468.273438 83.605469 471.742188 84.496094 C 471.371094 70.71875 480.671875 60.019531 499.144531 58.96875 L 498.246094 77.121094 C 483.339844 78.5 478.429688 80.203125 477.492188 86.441406 C 486.46875 90.65625 490.226562 98.761719 488.226562 110.109375 C 485.164062 127.453125 471.519531 137.09375 450.183594 137.09375 C 444.664062 137.09375 439.921875 136.449219 435.933594 135.230469 C 430.546875 135.878906 428.21875 137.417969 427.6875 140.417969 C 426.914062 144.792969 430.128906 146.660156 443.53125 148.199219 Z M 457.738281 94.304688 C 448.839844 94.304688 443.726562 99.492188 441.851562 110.109375 C 439.960938 120.804688 443.261719 125.910156 452.160156 125.910156 C 460.890625 125.910156 465.992188 120.804688 467.878906 110.109375 C 469.753906 99.492188 466.46875 94.304688 457.738281 94.304688 Z M 441.210938 187.019531 C 457.105469 187.019531 464.667969 183.371094 465.941406 176.160156 C 467.199219 169.027344 461.710938 167 448.03125 165.625 L 434.371094 164.164062 C 433.230469 164.085938 432.1875 163.921875 431.148438 163.757812 C 422.878906 166.273438 419.710938 169.757812 418.835938 174.699219 C 417.308594 183.371094 423.746094 187.019531 441.210938 187.019531 Z M 530.074219 74.851562 L 508.246094 74.851562 L 511.191406 58.15625 L 533.019531 58.15625 Z M 512.316406 170.324219 L 492.21875 170.324219 L 507.238281 85.226562 L 527.335938 85.226562 Z M 548.519531 170.324219 L 528.421875 170.324219 L 548.445312 56.859375 L 568.542969 56.859375 L 563.996094 82.632812 C 562.652344 90.25 560.296875 97.058594 555.09375 106.945312 L 556.707031 107.59375 C 566.230469 90.980469 577.222656 83.769531 590.566406 83.769531 C 605.722656 83.769531 612.046875 91.792969 609.34375 107.109375 L 598.1875 170.324219 L 578.171875 170.324219 L 588.597656 111.242188 C 590.144531 102.488281 587.019531 97.789062 579.773438 97.789062 C 568.734375 97.789062 559.234375 109.621094 556.128906 127.207031 Z M 647.871094 172.351562 C 623.984375 172.351562 613.640625 155.816406 618.433594 128.667969 L 618.746094 126.882812 C 623.566406 99.570312 639.71875 83.199219 663.605469 83.199219 C 687.492188 83.199219 697.863281 99.570312 693.042969 126.882812 L 692.726562 128.667969 C 687.9375 155.816406 671.675781 172.351562 647.871094 172.351562 Z M 650.273438 158.734375 C 661.3125 158.734375 668.292969 149.980469 671.539062 131.585938 L 672.882812 123.964844 C 676.128906 105.570312 672.253906 96.734375 661.214844 96.734375 C 650.09375 96.734375 643.183594 105.570312 639.9375 123.964844 L 638.589844 131.585938 C 635.34375 149.980469 639.152344 158.734375 650.273438 158.734375 Z M 718.617188 170.324219 L 698.515625 170.324219 L 713.535156 85.226562 L 733.714844 85.226562 C 732.960938 90.414062 731.160156 95.03125 725.339844 106.542969 L 726.863281 107.269531 C 737.675781 89.847656 746.738281 83.769531 758.515625 83.769531 C 771.78125 83.769531 776.332031 92.519531 770.496094 107.351562 L 772.0625 107.839844 C 781.160156 90.820312 791.796875 83.769531 804.726562 83.769531 C 818.8125 83.769531 824.207031 91.46875 821.417969 107.269531 L 810.289062 170.324219 L 790.195312 170.324219 L 800.738281 110.59375 C 802.222656 102.164062 799.667969 97.949219 793.078125 97.949219 C 783.035156 97.949219 775.117188 110.109375 772.25 126.398438 L 764.492188 170.324219 L 744.476562 170.324219 L 754.992188 110.753906 C 756.449219 102.488281 753.808594 97.871094 747.542969 97.871094 C 737.828125 97.871094 729.335938 109.539062 726.28125 126.882812 Z M 882.09375 140.824219 L 900.9375 143.253906 C 894.550781 162.625 880.328125 172.269531 859.578125 172.269531 C 835.769531 172.269531 825.21875 157.84375 829.855469 131.585938 L 831.183594 124.046875 C 835.820312 97.789062 851.554688 83.28125 875.859375 83.28125 C 898.507812 83.28125 908.679688 97.058594 904.347656 121.617188 C 903.671875 125.425781 902.875 128.992188 901.734375 133.125 L 849.515625 133.125 L 849.230469 134.746094 C 846.351562 151.035156 851.058594 158.898438 862.589844 158.898438 C 871.898438 158.898438 878.257812 153.710938 882.09375 140.824219 Z M 873.332031 96.652344 C 862.132812 96.652344 855.019531 104.273438 851.90625 119.589844 L 884.773438 119.589844 L 885.152344 117.402344 C 887.65625 103.21875 883.632812 96.652344 873.332031 96.652344 Z M 873.332031 96.652344 " fill-opacity="1" fill-rule="nonzero"/><g clip-path="url(#ff720cdfe1)"><path fill="#d298ff" d="M 24.253906 0 L 196.757812 0 C 197.527344 0 198.292969 0.0390625 199.058594 0.113281 C 199.824219 0.1875 200.582031 0.300781 201.335938 0.449219 C 202.089844 0.601562 202.835938 0.785156 203.570312 1.007812 C 204.304688 1.230469 205.027344 1.492188 205.738281 1.785156 C 206.449219 2.078125 207.144531 2.40625 207.820312 2.769531 C 208.5 3.128906 209.15625 3.523438 209.796875 3.949219 C 210.433594 4.378906 211.050781 4.835938 211.644531 5.320312 C 212.238281 5.808594 212.808594 6.324219 213.351562 6.867188 C 213.894531 7.410156 214.410156 7.976562 214.898438 8.570312 C 215.386719 9.164062 215.84375 9.78125 216.269531 10.417969 C 216.695312 11.058594 217.089844 11.714844 217.453125 12.394531 C 217.816406 13.070312 218.144531 13.761719 218.4375 14.472656 C 218.730469 15.183594 218.992188 15.902344 219.214844 16.636719 C 219.4375 17.375 219.625 18.117188 219.773438 18.871094 C 219.921875 19.625 220.035156 20.382812 220.113281 21.144531 C 220.1875 21.910156 220.222656 22.675781 220.222656 23.445312 L 220.222656 195.796875 C 220.222656 196.566406 220.1875 197.332031 220.113281 198.09375 C 220.035156 198.859375 219.921875 199.617188 219.773438 200.371094 C 219.625 201.125 219.4375 201.867188 219.214844 202.601562 C 218.992188 203.335938 218.730469 204.058594 218.4375 204.769531 C 218.144531 205.480469 217.816406 206.171875 217.453125 206.847656 C 217.089844 207.527344 216.695312 208.183594 216.269531 208.824219 C 215.84375 209.460938 215.386719 210.078125 214.898438 210.671875 C 214.410156 211.265625 213.894531 211.832031 213.351562 212.375 C 212.808594 212.917969 212.238281 213.433594 211.644531 213.921875 C 211.050781 214.40625 210.433594 214.863281 209.796875 215.289062 C 209.15625 215.71875 208.5 216.113281 207.820312 216.472656 C 207.144531 216.835938 206.449219 217.164062 205.738281 217.457031 C 205.027344 217.75 204.304688 218.007812 203.570312 218.230469 C 202.835938 218.453125 202.089844 218.640625 201.335938 218.792969 C 200.582031 218.941406 199.824219 219.054688 199.058594 219.128906 C 198.292969 219.203125 197.527344 219.242188 196.757812 219.242188 L 24.253906 219.242188 C 23.484375 219.242188 22.71875 219.203125 21.953125 219.128906 C 21.191406 219.054688 20.429688 218.941406 19.675781 218.792969 C 18.921875 218.640625 18.179688 218.453125 17.441406 218.230469 C 16.707031 218.007812 15.984375 217.75 15.273438 217.457031 C 14.566406 217.164062 13.871094 216.835938 13.191406 216.472656 C 12.515625 216.113281 11.855469 215.71875 11.21875 215.289062 C 10.578125 214.863281 9.960938 214.40625 9.367188 213.921875 C 8.773438 213.433594 8.207031 212.917969 7.664062 212.375 C 7.117188 211.832031 6.601562 211.265625 6.117188 210.671875 C 5.628906 210.078125 5.171875 209.460938 4.746094 208.824219 C 4.316406 208.183594 3.921875 207.527344 3.558594 206.847656 C 3.199219 206.171875 2.871094 205.480469 2.574219 204.769531 C 2.28125 204.058594 2.023438 203.335938 1.800781 202.601562 C 1.578125 201.867188 1.390625 201.125 1.242188 200.371094 C 1.089844 199.617188 0.976562 198.859375 0.902344 198.09375 C 0.828125 197.332031 0.789062 196.566406 0.789062 195.796875 L 0.789062 23.445312 C 0.789062 22.675781 0.828125 21.910156 0.902344 21.144531 C 0.976562 20.382812 1.089844 19.625 1.242188 18.871094 C 1.390625 18.117188 1.578125 17.375 1.800781 16.636719 C 2.023438 15.902344 2.28125 15.183594 2.574219 14.472656 C 2.871094 13.761719 3.199219 13.070312 3.558594 12.394531 C 3.921875 11.714844 4.316406 11.058594 4.746094 10.417969 C 5.171875 9.78125 5.628906 9.164062 6.117188 8.570312 C 6.601562 7.976562 7.117188 7.410156 7.664062 6.867188 C 8.207031 6.324219 8.773438 5.808594 9.367188 5.320312 C 9.960938 4.835938 10.578125 4.378906 11.21875 3.949219 C 11.855469 3.523438 12.515625 3.128906 13.191406 2.769531 C 13.871094 2.40625 14.566406 2.078125 15.273438 1.785156 C 15.984375 1.492188 16.707031 1.230469 17.441406 1.007812 C 18.179688 0.785156 18.921875 0.601562 19.675781 0.449219 C 20.429688 0.300781 21.191406 0.1875 21.953125 0.113281 C 22.71875 0.0390625 23.484375 0 24.253906 0 Z M 24.253906 0 " fill-opacity="1" fill-rule="nonzero"/></g><path fill="#1f1f1f" d="M 165.566406 134.285156 L 141.414062 134.285156 L 150.632812 82.046875 L 174.785156 82.046875 Z M 165.566406 134.285156 " fill-opacity="1" fill-rule="nonzero"/><path fill="#1f1f1f" d="M 156.347656 186.527344 L 132.191406 186.527344 L 141.414062 134.285156 L 165.566406 134.285156 Z M 156.347656 186.527344 " fill-opacity="1" fill-rule="nonzero"/><path fill="#1f1f1f" d="M 156.367188 186.40625 L 132.214844 186.40625 L 159.851562 29.804688 L 184.007812 29.804688 Z M 156.367188 186.40625 " fill-opacity="1" fill-rule="nonzero"/><path fill="#1f1f1f" d="M 68.945312 134.285156 L 44.792969 134.285156 L 54.011719 82.046875 L 78.164062 82.046875 Z M 68.945312 134.285156 " fill-opacity="1" fill-rule="nonzero"/><path fill="#1f1f1f" d="M 108.035156 186.527344 L 83.882812 186.527344 L 93.101562 134.285156 L 117.257812 134.285156 Z M 108.035156 186.527344 " fill-opacity="1" fill-rule="nonzero"/><path fill="#1f1f1f" d="M 126.476562 82.046875 L 102.324219 82.046875 L 111.542969 29.804688 L 135.695312 29.804688 Z M 126.476562 82.046875 " fill-opacity="1" fill-rule="nonzero"/><path fill="#1f1f1f" d="M 59.726562 186.527344 L 35.574219 186.527344 L 44.792969 134.285156 L 68.945312 134.285156 Z M 59.726562 186.527344 " fill-opacity="1" fill-rule="nonzero"/><path fill="#1f1f1f" d="M 59.75 186.40625 L 35.59375 186.40625 L 63.234375 29.804688 L 87.386719 29.804688 Z M 59.75 186.40625 " fill-opacity="1" fill-rule="nonzero"/></svg>