<svg xmlns="http://www.w3.org/2000/svg" xmlns:xlink="http://www.w3.org/1999/xlink" width="314" zoomAndPan="magnify" viewBox="0 0 235.5 50.999998" height="68" preserveAspectRatio="xMidYMid meet" version="1.0"><defs><clipPath id="cb947e6e53"><path d="M 0 0.0546875 L 44.15625 0.0546875 L 44.15625 50.945312 L 0 50.945312 Z M 0 0.0546875 " clip-rule="nonzero"/></clipPath></defs><g clip-path="url(#cb947e6e53)"><path fill="#d298ff" d="M 3.566406 -0.988281 L 224.011719 -0.988281 C 224.316406 -0.988281 224.613281 -0.957031 224.910156 -0.898438 C 225.207031 -0.839844 225.492188 -0.75 225.773438 -0.636719 C 226.050781 -0.519531 226.316406 -0.375 226.566406 -0.207031 C 226.816406 -0.0390625 227.050781 0.152344 227.261719 0.367188 C 227.476562 0.582031 227.667969 0.816406 227.832031 1.070312 C 228 1.320312 228.144531 1.589844 228.257812 1.867188 C 228.375 2.148438 228.460938 2.4375 228.519531 2.738281 C 228.578125 3.035156 228.609375 3.335938 228.609375 3.640625 L 228.609375 49.789062 C 228.609375 50.09375 228.578125 50.394531 228.519531 50.691406 C 228.460938 50.988281 228.375 51.277344 228.257812 51.558594 C 228.144531 51.839844 228 52.105469 227.832031 52.359375 C 227.667969 52.613281 227.476562 52.847656 227.261719 53.0625 C 227.050781 53.277344 226.816406 53.46875 226.566406 53.636719 C 226.316406 53.804688 226.050781 53.949219 225.773438 54.0625 C 225.492188 54.179688 225.207031 54.269531 224.910156 54.328125 C 224.613281 54.386719 224.316406 54.414062 224.011719 54.414062 L 3.566406 54.414062 C 3.265625 54.414062 2.964844 54.386719 2.671875 54.328125 C 2.375 54.269531 2.085938 54.179688 1.808594 54.0625 C 1.527344 53.949219 1.265625 53.804688 1.011719 53.636719 C 0.761719 53.46875 0.53125 53.277344 0.316406 53.0625 C 0.105469 52.847656 -0.0859375 52.613281 -0.253906 52.359375 C -0.421875 52.105469 -0.5625 51.839844 -0.679688 51.558594 C -0.792969 51.277344 -0.882812 50.988281 -0.941406 50.691406 C -1 50.394531 -1.027344 50.09375 -1.027344 49.789062 L -1.027344 3.640625 C -1.027344 3.335938 -1 3.035156 -0.941406 2.738281 C -0.882812 2.4375 -0.792969 2.148438 -0.679688 1.867188 C -0.5625 1.589844 -0.421875 1.320312 -0.253906 1.070312 C -0.0859375 0.816406 0.105469 0.582031 0.316406 0.367188 C 0.53125 0.152344 0.761719 -0.0390625 1.011719 -0.207031 C 1.265625 -0.375 1.527344 -0.519531 1.808594 -0.636719 C 2.085938 -0.75 2.375 -0.839844 2.671875 -0.898438 C 2.964844 -0.957031 3.265625 -0.988281 3.566406 -0.988281 Z M 3.566406 -0.988281 " fill-opacity="1" fill-rule="nonzero"/></g><path fill="#1f1f1f" d="M 36.273438 31.257812 L 30.175781 31.257812 L 32.503906 17.96875 L 38.601562 17.96875 Z M 36.273438 31.257812 " fill-opacity="1" fill-rule="nonzero"/><path fill="#1f1f1f" d="M 33.945312 44.550781 L 27.847656 44.550781 L 30.175781 31.261719 L 36.273438 31.261719 Z M 33.945312 44.550781 " fill-opacity="1" fill-rule="nonzero"/><path fill="#1f1f1f" d="M 38.601562 17.96875 L 32.503906 17.96875 L 34.828125 4.679688 L 40.925781 4.679688 Z M 38.601562 17.96875 " fill-opacity="1" fill-rule="nonzero"/><path fill="#1f1f1f" d="M 11.878906 31.257812 L 5.78125 31.257812 L 8.109375 17.96875 L 14.207031 17.96875 Z M 11.878906 31.257812 " fill-opacity="1" fill-rule="nonzero"/><path fill="#1f1f1f" d="M 21.75 44.550781 L 15.652344 44.550781 L 17.980469 31.261719 L 24.078125 31.261719 Z M 21.75 44.550781 " fill-opacity="1" fill-rule="nonzero"/><path fill="#1f1f1f" d="M 26.402344 17.96875 L 20.304688 17.96875 L 22.632812 4.679688 L 28.730469 4.679688 Z M 26.402344 17.96875 " fill-opacity="1" fill-rule="nonzero"/><path fill="#1f1f1f" d="M 9.550781 44.550781 L 3.453125 44.550781 L 5.78125 31.261719 L 11.878906 31.261719 Z M 9.550781 44.550781 " fill-opacity="1" fill-rule="nonzero"/><path fill="#1f1f1f" d="M 14.207031 17.96875 L 8.109375 17.96875 L 10.4375 4.679688 L 16.535156 4.679688 Z M 14.207031 17.96875 " fill-opacity="1" fill-rule="nonzero"/><path fill="#1f1f1f" d="M 57.191406 39.617188 C 51.867188 39.617188 49.804688 35.40625 51.214844 27.363281 L 51.394531 26.332031 C 52.808594 18.289062 56.351562 14.078125 61.671875 14.078125 C 65.902344 14.078125 67.929688 16.59375 68.558594 20.59375 L 69.09375 20.40625 C 68.71875 17.394531 68.753906 15.300781 69.160156 12.972656 L 70.335938 6.273438 L 76.109375 6.273438 L 70.332031 39.191406 L 64.582031 39.191406 C 64.820312 37.96875 65.574219 35.996094 66.832031 33.289062 L 66.363281 33.101562 C 64.28125 37.265625 61.398438 39.617188 57.191406 39.617188 Z M 60.148438 35.757812 C 63.402344 35.757812 65.664062 32.890625 66.605469 27.53125 L 66.839844 26.1875 C 67.785156 20.804688 66.535156 17.910156 63.28125 17.910156 C 60.214844 17.910156 58.261719 20.523438 57.308594 25.953125 L 56.988281 27.765625 C 56.039062 33.171875 57.082031 35.757812 60.148438 35.757812 Z M 85.945312 11.492188 L 79.648438 11.492188 L 80.5 6.648438 L 86.796875 6.648438 Z M 80.824219 39.191406 L 75.027344 39.191406 L 79.359375 14.503906 L 85.15625 14.503906 Z M 94.414062 32.773438 L 98.28125 33.21875 C 102.144531 33.667969 106.773438 34.65625 105.789062 40.25 C 104.878906 45.449219 100.628906 47.988281 92.742188 47.988281 C 85.328125 47.988281 82.074219 46.082031 82.796875 41.96875 C 83.242188 39.429688 84.882812 37.804688 88.117188 37.101562 L 88.191406 36.675781 C 86.109375 35.949219 84.820312 34.632812 85.222656 32.351562 C 85.597656 30.210938 87.265625 28.824219 90.085938 28.46875 L 90.164062 28.023438 C 88.300781 26.707031 87.5625 24.566406 88.0625 21.722656 C 88.933594 16.738281 92.898438 13.914062 99.078125 13.914062 C 100.382812 13.914062 101.550781 14.03125 102.550781 14.289062 C 102.445312 10.292969 105.128906 7.1875 110.457031 6.882812 L 110.199219 12.152344 C 105.898438 12.550781 104.480469 13.042969 104.210938 14.855469 C 106.800781 16.078125 107.882812 18.429688 107.308594 21.722656 C 106.421875 26.753906 102.488281 29.550781 96.332031 29.550781 C 94.742188 29.550781 93.371094 29.363281 92.222656 29.011719 C 90.667969 29.199219 89.996094 29.644531 89.84375 30.515625 C 89.621094 31.785156 90.546875 32.328125 94.414062 32.773438 Z M 98.511719 17.136719 C 95.945312 17.136719 94.46875 18.640625 93.929688 21.722656 C 93.386719 24.824219 94.335938 26.308594 96.902344 26.308594 C 99.421875 26.308594 100.894531 24.824219 101.4375 21.722656 C 101.976562 18.640625 101.03125 17.136719 98.511719 17.136719 Z M 93.746094 44.035156 C 98.332031 44.035156 100.511719 42.980469 100.878906 40.886719 C 101.242188 38.816406 99.65625 38.230469 95.710938 37.828125 L 91.773438 37.40625 C 91.441406 37.382812 91.140625 37.335938 90.839844 37.289062 C 88.457031 38.015625 87.542969 39.027344 87.289062 40.460938 C 86.847656 42.980469 88.707031 44.035156 93.746094 44.035156 Z M 119.378906 11.492188 L 113.082031 11.492188 L 113.933594 6.648438 L 120.226562 6.648438 Z M 114.257812 39.191406 L 108.460938 39.191406 L 112.792969 14.503906 L 118.589844 14.503906 Z M 124.699219 39.191406 L 118.902344 39.191406 L 124.679688 6.273438 L 130.476562 6.273438 L 129.164062 13.75 C 128.777344 15.960938 128.097656 17.9375 126.59375 20.804688 L 127.0625 20.992188 C 129.808594 16.171875 132.980469 14.078125 136.828125 14.078125 C 141.199219 14.078125 143.027344 16.40625 142.246094 20.851562 L 139.027344 39.191406 L 133.253906 39.191406 L 136.261719 22.050781 C 136.707031 19.511719 135.804688 18.148438 133.714844 18.148438 C 130.53125 18.148438 127.789062 21.582031 126.894531 26.683594 Z M 153.359375 39.78125 C 146.46875 39.78125 143.484375 34.984375 144.867188 27.105469 L 144.957031 26.589844 C 146.347656 18.664062 151.007812 13.914062 157.898438 13.914062 C 164.789062 13.914062 167.78125 18.664062 166.390625 26.589844 L 166.300781 27.105469 C 164.917969 34.984375 160.226562 39.78125 153.359375 39.78125 Z M 154.054688 35.832031 C 157.238281 35.832031 159.25 33.289062 160.1875 27.953125 L 160.574219 25.742188 C 161.511719 20.40625 160.394531 17.839844 157.210938 17.839844 C 154 17.839844 152.007812 20.40625 151.070312 25.742188 L 150.683594 27.953125 C 149.746094 33.289062 150.84375 35.832031 154.054688 35.832031 Z M 173.765625 39.191406 L 167.96875 39.191406 L 172.300781 14.503906 L 178.121094 14.503906 C 177.90625 16.007812 177.386719 17.347656 175.707031 20.6875 L 176.144531 20.898438 C 179.265625 15.84375 181.878906 14.078125 185.277344 14.078125 C 189.101562 14.078125 190.414062 16.617188 188.734375 20.921875 L 189.183594 21.0625 C 191.808594 16.125 194.878906 14.078125 198.605469 14.078125 C 202.671875 14.078125 204.226562 16.3125 203.421875 20.898438 L 200.210938 39.191406 L 194.414062 39.191406 L 197.453125 21.863281 C 197.882812 19.417969 197.148438 18.195312 195.246094 18.195312 C 192.347656 18.195312 190.066406 21.722656 189.238281 26.449219 L 187 39.191406 L 181.226562 39.191406 L 184.257812 21.910156 C 184.679688 19.511719 183.917969 18.171875 182.113281 18.171875 C 179.308594 18.171875 176.859375 21.558594 175.976562 26.589844 Z M 220.925781 30.632812 L 226.359375 31.339844 C 224.519531 36.957031 220.417969 39.757812 214.429688 39.757812 C 207.5625 39.757812 204.519531 35.570312 205.855469 27.953125 L 206.238281 25.765625 C 207.578125 18.148438 212.117188 13.9375 219.125 13.9375 C 225.660156 13.9375 228.59375 17.9375 227.34375 25.058594 C 227.148438 26.164062 226.921875 27.199219 226.59375 28.398438 L 211.527344 28.398438 L 211.445312 28.871094 C 210.617188 33.597656 211.972656 35.878906 215.300781 35.878906 C 217.984375 35.878906 219.816406 34.371094 220.925781 30.632812 Z M 218.398438 17.816406 C 215.167969 17.816406 213.113281 20.027344 212.21875 24.472656 L 221.695312 24.472656 L 221.808594 23.835938 C 222.53125 19.722656 221.367188 17.816406 218.398438 17.816406 Z M 218.398438 17.816406 " fill-opacity="1" fill-rule="nonzero"/></svg>