<svg xmlns="http://www.w3.org/2000/svg" xmlns:xlink="http://www.w3.org/1999/xlink" width="1238" zoomAndPan="magnify" viewBox="0 0 928.5 223.499994" height="298" preserveAspectRatio="xMidYMid meet" version="1.0"><defs><clipPath id="ff720cdfe1"><path d="M 0.785156 0 L 221 0 L 221 220 L 0.785156 220 Z M 0.785156 0 " clip-rule="nonzero"/></clipPath><clipPath id="d2c65bbb92"><path d="M 0.785156 0 L 221 0 L 221 220 L 0.785156 220 Z M 0.785156 0 " clip-rule="nonzero"/></clipPath></defs><path fill="#1f1f1f" d="M 314.597656 171.992188 C 296.140625 171.992188 288.980469 157.464844 293.871094 129.714844 L 294.5 126.144531 C 299.394531 98.394531 311.679688 83.871094 330.136719 83.871094 C 344.800781 83.871094 351.839844 92.550781 354.023438 106.347656 L 355.867188 105.695312 C 354.566406 95.308594 354.6875 88.089844 356.105469 80.054688 L 360.179688 56.929688 L 380.203125 56.929688 L 360.171875 170.53125 L 340.234375 170.53125 C 341.058594 166.3125 343.660156 159.496094 348.027344 150.164062 L 346.410156 149.515625 C 339.179688 163.875 329.179688 171.992188 314.597656 171.992188 Z M 324.855469 158.683594 C 336.140625 158.683594 343.984375 148.785156 347.246094 130.285156 L 348.0625 125.65625 C 351.339844 107.074219 347 97.09375 335.714844 97.09375 C 325.085938 97.09375 318.304688 106.101562 315 124.847656 L 313.898438 131.09375 C 310.609375 149.757812 314.226562 158.683594 324.855469 158.683594 Z M 414.3125 74.941406 L 392.476562 74.941406 L 395.425781 58.226562 L 417.261719 58.226562 Z M 396.550781 170.53125 L 376.445312 170.53125 L 391.46875 85.328125 L 411.574219 85.328125 Z M 443.675781 148.378906 L 457.082031 149.921875 C 470.488281 151.460938 486.53125 154.871094 483.125 174.183594 C 479.960938 192.113281 465.234375 200.878906 437.878906 200.878906 C 412.171875 200.878906 400.890625 194.304688 403.394531 180.105469 C 404.9375 171.339844 410.621094 165.742188 421.84375 163.308594 L 422.101562 161.847656 C 414.882812 159.332031 410.410156 154.789062 411.796875 146.917969 C 413.101562 139.535156 418.886719 134.746094 428.660156 133.527344 L 428.933594 131.988281 C 422.484375 127.441406 419.914062 120.058594 421.644531 110.242188 C 424.675781 93.039062 438.425781 83.300781 459.847656 83.300781 C 464.378906 83.300781 468.425781 83.707031 471.894531 84.597656 C 471.527344 70.804688 480.828125 60.09375 499.308594 59.039062 L 498.410156 77.214844 C 483.5 78.59375 478.585938 80.296875 477.648438 86.546875 C 486.628906 90.765625 490.386719 98.878906 488.386719 110.242188 C 485.324219 127.605469 471.671875 137.261719 450.332031 137.261719 C 444.8125 137.261719 440.066406 136.613281 436.078125 135.394531 C 430.6875 136.042969 428.359375 137.585938 427.828125 140.589844 C 427.054688 144.96875 430.269531 146.835938 443.675781 148.378906 Z M 457.886719 94.417969 C 448.988281 94.417969 443.871094 99.609375 441.996094 110.242188 C 440.105469 120.953125 443.410156 126.0625 452.308594 126.0625 C 461.039062 126.0625 466.144531 120.953125 468.03125 110.242188 C 469.90625 99.609375 466.621094 94.417969 457.886719 94.417969 Z M 441.355469 187.246094 C 457.257812 187.246094 464.820312 183.59375 466.09375 176.371094 C 467.355469 169.230469 461.859375 167.203125 448.179688 165.824219 L 434.511719 164.363281 C 433.375 164.28125 432.332031 164.121094 431.289062 163.957031 C 423.015625 166.472656 419.847656 169.960938 418.976562 174.910156 C 417.445312 183.59375 423.886719 187.246094 441.355469 187.246094 Z M 530.246094 74.941406 L 508.410156 74.941406 L 511.359375 58.226562 L 533.195312 58.226562 Z M 512.484375 170.53125 L 492.382812 170.53125 L 507.402344 85.328125 L 527.507812 85.328125 Z M 548.699219 170.53125 L 528.59375 170.53125 L 548.625 56.929688 L 568.730469 56.929688 L 564.179688 82.734375 C 562.835938 90.359375 560.480469 97.175781 555.273438 107.074219 L 556.890625 107.726562 C 566.414062 91.089844 577.410156 83.871094 590.757812 83.871094 C 605.917969 83.871094 612.25 91.902344 609.542969 107.238281 L 598.382812 170.53125 L 578.363281 170.53125 L 588.792969 111.375 C 590.339844 102.613281 587.210938 97.90625 579.960938 97.90625 C 568.921875 97.90625 559.417969 109.753906 556.3125 127.363281 Z M 648.082031 172.558594 C 624.1875 172.558594 613.84375 156.003906 618.636719 128.824219 L 618.949219 127.039062 C 623.769531 99.691406 639.925781 83.300781 663.820312 83.300781 C 687.714844 83.300781 698.09375 99.691406 693.269531 127.039062 L 692.957031 128.824219 C 688.160156 156.003906 671.894531 172.558594 648.082031 172.558594 Z M 650.488281 158.925781 C 661.527344 158.925781 668.511719 150.164062 671.757812 131.742188 L 673.105469 124.117188 C 676.351562 105.695312 672.472656 96.851562 661.433594 96.851562 C 650.308594 96.851562 643.394531 105.695312 640.144531 124.117188 L 638.800781 131.742188 C 635.554688 150.164062 639.363281 158.925781 650.488281 158.925781 Z M 718.851562 170.53125 L 698.746094 170.53125 L 713.769531 85.328125 L 733.957031 85.328125 C 733.203125 90.523438 731.398438 95.148438 725.578125 106.671875 L 727.101562 107.402344 C 737.917969 89.953125 746.984375 83.871094 758.761719 83.871094 C 772.035156 83.871094 776.585938 92.632812 770.75 107.480469 L 772.316406 107.96875 C 781.417969 90.929688 792.054688 83.871094 804.992188 83.871094 C 819.082031 83.871094 824.480469 91.578125 821.6875 107.402344 L 810.554688 170.53125 L 790.453125 170.53125 L 801 110.726562 C 802.484375 102.289062 799.929688 98.070312 793.339844 98.070312 C 783.289062 98.070312 775.375 110.242188 772.503906 126.550781 L 764.742188 170.53125 L 744.722656 170.53125 L 755.238281 110.890625 C 756.695312 102.613281 754.054688 97.988281 747.789062 97.988281 C 738.070312 97.988281 729.578125 109.671875 726.519531 127.039062 Z M 882.382812 140.992188 L 901.234375 143.429688 C 894.847656 162.820312 880.617188 172.476562 859.859375 172.476562 C 836.042969 172.476562 825.492188 158.035156 830.128906 131.742188 L 831.457031 124.195312 C 836.09375 97.90625 851.835938 83.382812 876.148438 83.382812 C 898.800781 83.382812 908.980469 97.175781 904.644531 121.761719 C 903.96875 125.578125 903.171875 129.148438 902.03125 133.285156 L 849.796875 133.285156 L 849.507812 134.910156 C 846.628906 151.21875 851.339844 159.089844 862.875 159.089844 C 872.183594 159.089844 878.542969 153.894531 882.382812 140.992188 Z M 873.621094 96.769531 C 862.414062 96.769531 855.300781 104.398438 852.1875 119.734375 L 885.0625 119.734375 L 885.441406 117.542969 C 887.949219 103.34375 883.921875 96.769531 873.621094 96.769531 Z M 873.621094 96.769531 " fill-opacity="1" fill-rule="nonzero"/><g clip-path="url(#d2c65bbb92)"><path fill="#d298ff" d="M 24.261719 0 L 196.824219 0 C 197.59375 0 198.359375 0.0390625 199.125 0.113281 C 199.890625 0.1875 200.648438 0.300781 201.402344 0.449219 C 202.15625 0.601562 202.902344 0.789062 203.636719 1.011719 C 204.375 1.234375 205.097656 1.492188 205.804688 1.785156 C 206.515625 2.082031 207.210938 2.410156 207.890625 2.773438 C 208.566406 3.132812 209.226562 3.527344 209.863281 3.957031 C 210.503906 4.382812 211.121094 4.839844 211.714844 5.328125 C 212.308594 5.816406 212.878906 6.332031 213.421875 6.875 C 213.964844 7.417969 214.480469 7.988281 214.96875 8.582031 C 215.457031 9.175781 215.914062 9.792969 216.339844 10.433594 C 216.769531 11.070312 217.164062 11.730469 217.523438 12.40625 C 217.886719 13.085938 218.214844 13.78125 218.511719 14.488281 C 218.804688 15.199219 219.0625 15.921875 219.285156 16.660156 C 219.507812 17.394531 219.695312 18.140625 219.84375 18.894531 C 219.996094 19.648438 220.109375 20.40625 220.183594 21.171875 C 220.257812 21.9375 220.296875 22.703125 220.296875 23.472656 L 220.296875 196.035156 C 220.296875 196.804688 220.257812 197.570312 220.183594 198.335938 C 220.109375 199.101562 219.996094 199.859375 219.84375 200.613281 C 219.695312 201.367188 219.507812 202.113281 219.285156 202.847656 C 219.0625 203.582031 218.804688 204.308594 218.511719 205.015625 C 218.214844 205.726562 217.886719 206.421875 217.523438 207.097656 C 217.164062 207.777344 216.769531 208.4375 216.339844 209.074219 C 215.914062 209.714844 215.457031 210.332031 214.96875 210.925781 C 214.480469 211.519531 213.964844 212.089844 213.421875 212.632812 C 212.878906 213.175781 212.308594 213.691406 211.714844 214.179688 C 211.121094 214.667969 210.503906 215.125 209.863281 215.550781 C 209.226562 215.976562 208.566406 216.371094 207.890625 216.734375 C 207.210938 217.097656 206.515625 217.425781 205.804688 217.71875 C 205.097656 218.015625 204.375 218.273438 203.636719 218.496094 C 202.902344 218.71875 202.15625 218.90625 201.402344 219.054688 C 200.648438 219.207031 199.890625 219.320312 199.125 219.394531 C 198.359375 219.46875 197.59375 219.507812 196.824219 219.507812 L 24.261719 219.507812 C 23.492188 219.507812 22.726562 219.46875 21.960938 219.394531 C 21.195312 219.320312 20.4375 219.207031 19.683594 219.054688 C 18.929688 218.90625 18.183594 218.71875 17.449219 218.496094 C 16.710938 218.273438 15.988281 218.015625 15.28125 217.71875 C 14.570312 217.425781 13.875 217.097656 13.199219 216.734375 C 12.519531 216.371094 11.859375 215.976562 11.222656 215.550781 C 10.582031 215.125 9.964844 214.667969 9.371094 214.179688 C 8.777344 213.691406 8.207031 213.175781 7.664062 212.632812 C 7.121094 212.089844 6.605469 211.519531 6.117188 210.925781 C 5.628906 210.332031 5.171875 209.714844 4.746094 209.074219 C 4.320312 208.4375 3.921875 207.777344 3.5625 207.097656 C 3.199219 206.421875 2.871094 205.726562 2.578125 205.015625 C 2.28125 204.308594 2.023438 203.582031 1.800781 202.847656 C 1.578125 202.113281 1.390625 201.367188 1.242188 200.613281 C 1.089844 199.859375 0.976562 199.101562 0.902344 198.335938 C 0.828125 197.570312 0.789062 196.804688 0.789062 196.035156 L 0.789062 23.472656 C 0.789062 22.703125 0.828125 21.9375 0.902344 21.171875 C 0.976562 20.40625 1.089844 19.648438 1.242188 18.894531 C 1.390625 18.140625 1.578125 17.394531 1.800781 16.660156 C 2.023438 15.921875 2.28125 15.199219 2.578125 14.488281 C 2.871094 13.78125 3.199219 13.085938 3.5625 12.40625 C 3.921875 11.730469 4.320312 11.070312 4.746094 10.433594 C 5.171875 9.792969 5.628906 9.175781 6.117188 8.582031 C 6.605469 7.988281 7.121094 7.417969 7.664062 6.875 C 8.207031 6.332031 8.777344 5.816406 9.371094 5.328125 C 9.964844 4.839844 10.582031 4.382812 11.222656 3.957031 C 11.859375 3.527344 12.519531 3.132812 13.199219 2.773438 C 13.875 2.410156 14.570312 2.082031 15.28125 1.785156 C 15.988281 1.492188 16.710938 1.234375 17.449219 1.011719 C 18.183594 0.789062 18.929688 0.601562 19.683594 0.449219 C 20.4375 0.300781 21.195312 0.1875 21.960938 0.113281 C 22.726562 0.0390625 23.492188 0 24.261719 0 Z M 24.261719 0 " fill-opacity="1" fill-rule="nonzero"/></g><path fill="#1f1f1f" d="M 165.621094 134.449219 L 141.460938 134.449219 L 150.683594 82.144531 L 174.84375 82.144531 Z M 165.621094 134.449219 " fill-opacity="1" fill-rule="nonzero"/><path fill="#1f1f1f" d="M 156.398438 186.75 L 132.234375 186.75 L 141.457031 134.449219 L 165.621094 134.449219 Z M 156.398438 186.75 " fill-opacity="1" fill-rule="nonzero"/><path fill="#1f1f1f" d="M 156.417969 186.632812 L 132.257812 186.632812 L 159.90625 29.839844 L 184.066406 29.839844 Z M 156.417969 186.632812 " fill-opacity="1" fill-rule="nonzero"/><path fill="#1f1f1f" d="M 68.96875 134.449219 L 44.808594 134.449219 L 54.03125 82.144531 L 78.191406 82.144531 Z M 68.96875 134.449219 " fill-opacity="1" fill-rule="nonzero"/><path fill="#1f1f1f" d="M 108.070312 186.75 L 83.910156 186.75 L 93.132812 134.449219 L 117.292969 134.449219 Z M 108.070312 186.75 " fill-opacity="1" fill-rule="nonzero"/><path fill="#1f1f1f" d="M 126.519531 82.144531 L 102.355469 82.144531 L 111.578125 29.839844 L 135.742188 29.839844 Z M 126.519531 82.144531 " fill-opacity="1" fill-rule="nonzero"/><path fill="#1f1f1f" d="M 59.746094 186.75 L 35.582031 186.75 L 44.804688 134.449219 L 68.96875 134.449219 Z M 59.746094 186.75 " fill-opacity="1" fill-rule="nonzero"/><path fill="#1f1f1f" d="M 59.769531 186.632812 L 35.605469 186.632812 L 63.253906 29.839844 L 87.414062 29.839844 Z M 59.769531 186.632812 " fill-opacity="1" fill-rule="nonzero"/></svg>