<svg xmlns="http://www.w3.org/2000/svg" xmlns:xlink="http://www.w3.org/1999/xlink" width="314" zoomAndPan="magnify" viewBox="0 0 235.5 50.999998" height="68" preserveAspectRatio="xMidYMid meet" version="1.0"><defs><clipPath id="2c82a84771"><path d="M 0 0.0546875 L 44.15625 0.0546875 L 44.15625 50.945312 L 0 50.945312 Z M 0 0.0546875 " clip-rule="nonzero"/></clipPath></defs><g clip-path="url(#2c82a84771)"><path fill="#d298ff" d="M 3.566406 -0.988281 L 224.011719 -0.988281 C 224.316406 -0.988281 224.613281 -0.957031 224.910156 -0.898438 C 225.207031 -0.839844 225.492188 -0.75 225.773438 -0.636719 C 226.050781 -0.519531 226.316406 -0.375 226.566406 -0.207031 C 226.816406 -0.0390625 227.050781 0.152344 227.261719 0.367188 C 227.476562 0.582031 227.667969 0.816406 227.832031 1.070312 C 228 1.320312 228.144531 1.589844 228.257812 1.867188 C 228.375 2.148438 228.460938 2.4375 228.519531 2.738281 C 228.578125 3.035156 228.609375 3.335938 228.609375 3.640625 L 228.609375 49.789062 C 228.609375 50.09375 228.578125 50.394531 228.519531 50.691406 C 228.460938 50.988281 228.375 51.277344 228.257812 51.558594 C 228.144531 51.839844 228 52.105469 227.832031 52.359375 C 227.667969 52.613281 227.476562 52.847656 227.261719 53.0625 C 227.050781 53.277344 226.816406 53.46875 226.566406 53.636719 C 226.316406 53.804688 226.050781 53.949219 225.773438 54.0625 C 225.492188 54.179688 225.207031 54.269531 224.910156 54.328125 C 224.613281 54.386719 224.316406 54.414062 224.011719 54.414062 L 3.566406 54.414062 C 3.265625 54.414062 2.964844 54.386719 2.671875 54.328125 C 2.375 54.269531 2.085938 54.179688 1.808594 54.0625 C 1.527344 53.949219 1.265625 53.804688 1.011719 53.636719 C 0.761719 53.46875 0.53125 53.277344 0.316406 53.0625 C 0.105469 52.847656 -0.0859375 52.613281 -0.253906 52.359375 C -0.421875 52.105469 -0.5625 51.839844 -0.679688 51.558594 C -0.792969 51.277344 -0.882812 50.988281 -0.941406 50.691406 C -1 50.394531 -1.027344 50.09375 -1.027344 49.789062 L -1.027344 3.640625 C -1.027344 3.335938 -1 3.035156 -0.941406 2.738281 C -0.882812 2.4375 -0.792969 2.148438 -0.679688 1.867188 C -0.5625 1.589844 -0.421875 1.320312 -0.253906 1.070312 C -0.0859375 0.816406 0.105469 0.582031 0.316406 0.367188 C 0.53125 0.152344 0.761719 -0.0390625 1.011719 -0.207031 C 1.265625 -0.375 1.527344 -0.519531 1.808594 -0.636719 C 2.085938 -0.75 2.375 -0.839844 2.671875 -0.898438 C 2.964844 -0.957031 3.265625 -0.988281 3.566406 -0.988281 Z M 3.566406 -0.988281 " fill-opacity="1" fill-rule="nonzero"/></g><path fill="#1f1f1f" d="M 36.273438 31.257812 L 30.175781 31.257812 L 32.503906 17.96875 L 38.601562 17.96875 Z M 36.273438 31.257812 " fill-opacity="1" fill-rule="nonzero"/><path fill="#1f1f1f" d="M 33.945312 44.550781 L 27.847656 44.550781 L 30.175781 31.261719 L 36.273438 31.261719 Z M 33.945312 44.550781 " fill-opacity="1" fill-rule="nonzero"/><path fill="#1f1f1f" d="M 38.601562 17.96875 L 32.503906 17.96875 L 34.828125 4.679688 L 40.925781 4.679688 Z M 38.601562 17.96875 " fill-opacity="1" fill-rule="nonzero"/><path fill="#1f1f1f" d="M 11.878906 31.257812 L 5.78125 31.257812 L 8.109375 17.96875 L 14.207031 17.96875 Z M 11.878906 31.257812 " fill-opacity="1" fill-rule="nonzero"/><path fill="#1f1f1f" d="M 21.75 44.550781 L 15.652344 44.550781 L 17.980469 31.261719 L 24.078125 31.261719 Z M 21.75 44.550781 " fill-opacity="1" fill-rule="nonzero"/><path fill="#1f1f1f" d="M 26.402344 17.96875 L 20.304688 17.96875 L 22.632812 4.679688 L 28.730469 4.679688 Z M 26.402344 17.96875 " fill-opacity="1" fill-rule="nonzero"/><path fill="#1f1f1f" d="M 9.550781 44.550781 L 3.453125 44.550781 L 5.78125 31.261719 L 11.878906 31.261719 Z M 9.550781 44.550781 " fill-opacity="1" fill-rule="nonzero"/><path fill="#1f1f1f" d="M 14.207031 17.96875 L 8.109375 17.96875 L 10.4375 4.679688 L 16.535156 4.679688 Z M 14.207031 17.96875 " fill-opacity="1" fill-rule="nonzero"/><path fill="#ffffff" d="M 57.222656 39.457031 C 51.898438 39.457031 49.832031 35.265625 51.242188 27.257812 L 51.425781 26.226562 C 52.835938 18.21875 56.382812 14.027344 61.707031 14.027344 C 65.9375 14.027344 67.96875 16.535156 68.597656 20.515625 L 69.132812 20.328125 C 68.757812 17.328125 68.792969 15.246094 69.199219 12.929688 L 70.375 6.253906 L 76.152344 6.253906 L 70.375 39.035156 L 64.621094 39.035156 C 64.859375 37.816406 65.609375 35.851562 66.871094 33.15625 L 66.402344 32.96875 C 64.316406 37.113281 61.429688 39.457031 57.222656 39.457031 Z M 60.183594 35.617188 C 63.441406 35.617188 65.703125 32.757812 66.644531 27.421875 L 66.878906 26.085938 C 67.824219 20.726562 66.574219 17.84375 63.316406 17.84375 C 60.25 17.84375 58.292969 20.445312 57.339844 25.851562 L 57.023438 27.65625 C 56.070312 33.039062 57.117188 35.617188 60.183594 35.617188 Z M 85.996094 11.453125 L 79.695312 11.453125 L 80.546875 6.628906 L 86.847656 6.628906 Z M 80.871094 39.035156 L 75.070312 39.035156 L 79.40625 14.449219 L 85.207031 14.449219 Z M 94.46875 32.640625 L 98.335938 33.085938 C 102.207031 33.53125 106.835938 34.515625 105.851562 40.089844 C 104.941406 45.261719 100.691406 47.792969 92.796875 47.792969 C 85.378906 47.792969 82.121094 45.894531 82.84375 41.796875 C 83.292969 39.269531 84.929688 37.652344 88.167969 36.949219 L 88.242188 36.527344 C 86.160156 35.804688 84.871094 34.492188 85.269531 32.222656 C 85.648438 30.089844 87.316406 28.707031 90.136719 28.359375 L 90.214844 27.914062 C 88.355469 26.601562 87.613281 24.472656 88.113281 21.636719 C 88.988281 16.675781 92.953125 13.863281 99.136719 13.863281 C 100.441406 13.863281 101.609375 13.980469 102.613281 14.238281 C 102.503906 10.257812 105.191406 7.167969 110.519531 6.863281 L 110.261719 12.109375 C 105.960938 12.507812 104.542969 13 104.273438 14.800781 C 106.863281 16.019531 107.949219 18.359375 107.371094 21.636719 C 106.484375 26.648438 102.546875 29.433594 96.390625 29.433594 C 94.796875 29.433594 93.425781 29.246094 92.277344 28.894531 C 90.722656 29.082031 90.050781 29.527344 89.894531 30.394531 C 89.671875 31.660156 90.601562 32.199219 94.46875 32.640625 Z M 98.570312 17.070312 C 96 17.070312 94.523438 18.570312 93.984375 21.636719 C 93.4375 24.730469 94.390625 26.203125 96.960938 26.203125 C 99.480469 26.203125 100.953125 24.730469 101.496094 21.636719 C 102.039062 18.570312 101.089844 17.070312 98.570312 17.070312 Z M 93.800781 43.859375 C 98.386719 43.859375 100.570312 42.804688 100.9375 40.71875 C 101.300781 38.660156 99.714844 38.074219 95.769531 37.675781 L 91.824219 37.253906 C 91.496094 37.230469 91.195312 37.183594 90.894531 37.136719 C 88.507812 37.863281 87.59375 38.871094 87.339844 40.296875 C 86.898438 42.804688 88.757812 43.859375 93.800781 43.859375 Z M 119.449219 11.453125 L 113.148438 11.453125 L 114 6.628906 L 120.296875 6.628906 Z M 114.324219 39.035156 L 108.523438 39.035156 L 112.859375 14.449219 L 118.660156 14.449219 Z M 124.773438 39.035156 L 118.972656 39.035156 L 124.753906 6.253906 L 130.554688 6.253906 L 129.238281 13.699219 C 128.851562 15.902344 128.171875 17.867188 126.671875 20.726562 L 127.136719 20.914062 C 129.882812 16.113281 133.058594 14.027344 136.910156 14.027344 C 141.285156 14.027344 143.109375 16.347656 142.332031 20.773438 L 139.109375 39.035156 L 133.332031 39.035156 L 136.34375 21.964844 C 136.789062 19.4375 135.886719 18.078125 133.792969 18.078125 C 130.609375 18.078125 127.867188 21.496094 126.96875 26.578125 Z M 153.449219 39.621094 C 146.554688 39.621094 143.570312 34.84375 144.953125 27 L 145.042969 26.484375 C 146.4375 18.59375 151.097656 13.863281 157.992188 13.863281 C 164.886719 13.863281 167.878906 18.59375 166.488281 26.484375 L 166.398438 27 C 165.015625 34.84375 160.320312 39.621094 153.449219 39.621094 Z M 154.144531 35.6875 C 157.332031 35.6875 159.34375 33.15625 160.28125 27.84375 L 160.671875 25.640625 C 161.609375 20.328125 160.488281 17.773438 157.300781 17.773438 C 154.09375 17.773438 152.097656 20.328125 151.160156 25.640625 L 150.773438 27.84375 C 149.835938 33.15625 150.933594 35.6875 154.144531 35.6875 Z M 173.871094 39.035156 L 168.070312 39.035156 L 172.402344 14.449219 L 178.230469 14.449219 C 178.011719 15.949219 177.492188 17.28125 175.8125 20.609375 L 176.25 20.820312 C 179.371094 15.785156 181.988281 14.027344 185.386719 14.027344 C 189.214844 14.027344 190.527344 16.558594 188.847656 20.84375 L 189.296875 20.980469 C 191.921875 16.066406 194.992188 14.027344 198.726562 14.027344 C 202.792969 14.027344 204.347656 16.253906 203.542969 20.820312 L 200.332031 39.035156 L 194.53125 39.035156 L 197.574219 21.777344 C 198.003906 19.34375 197.265625 18.125 195.363281 18.125 C 192.464844 18.125 190.179688 21.636719 189.351562 26.34375 L 187.113281 39.035156 L 181.335938 39.035156 L 184.371094 21.824219 C 184.789062 19.4375 184.027344 18.101562 182.222656 18.101562 C 179.414062 18.101562 176.964844 21.472656 176.082031 26.484375 Z M 221.058594 30.511719 L 226.496094 31.214844 C 224.65625 36.808594 220.550781 39.597656 214.558594 39.597656 C 207.6875 39.597656 204.640625 35.429688 205.980469 27.84375 L 206.363281 25.664062 C 207.699219 18.078125 212.242188 13.886719 219.257812 13.886719 C 225.796875 13.886719 228.730469 17.867188 227.480469 24.960938 C 227.285156 26.0625 227.058594 27.09375 226.726562 28.289062 L 211.652344 28.289062 L 211.570312 28.753906 C 210.742188 33.460938 212.101562 35.734375 215.429688 35.734375 C 218.117188 35.734375 219.949219 34.234375 221.058594 30.511719 Z M 218.527344 17.75 C 215.296875 17.75 213.242188 19.953125 212.34375 24.378906 L 221.828125 24.378906 L 221.941406 23.746094 C 222.664062 19.648438 221.5 17.75 218.527344 17.75 Z M 218.527344 17.75 " fill-opacity="1" fill-rule="nonzero"/></svg>