<svg width="512" height="512" viewBox="0 0 60 60" fill="none" xmlns="http://www.w3.org/2000/svg">
<rect x="0.000488281" y="-5.34058e-05" width="59.9741" height="59.9741" rx="3.47676" fill="#D298FF"/>
<rect width="6.60155" height="14.5107" transform="matrix(-1 -8.60946e-08 0.173648 -0.984808 45.0359 36.7341)" fill="#1F1F1F"/>
<rect width="6.60155" height="14.5107" transform="matrix(-1 -8.60946e-08 0.173648 -0.984808 42.5159 51.0244)" fill="#1F1F1F"/>
<rect width="6.60155" height="14.5107" transform="matrix(-1 -8.60946e-08 0.173648 -0.984808 47.5559 22.4436)" fill="#1F1F1F"/>
<rect width="6.60155" height="14.5107" transform="matrix(-1 -8.60946e-08 0.173648 -0.984808 18.6284 36.7341)" fill="#1F1F1F"/>
<rect width="6.60155" height="14.5107" transform="matrix(-1 -8.60946e-08 0.173648 -0.984808 29.3123 51.0244)" fill="#1F1F1F"/>
<rect width="6.60155" height="14.5107" transform="matrix(-1 -8.60946e-08 0.173648 -0.984808 34.3521 22.4436)" fill="#1F1F1F"/>
<rect width="6.60155" height="14.5107" transform="matrix(-1 -8.60946e-08 0.173648 -0.984808 16.1084 51.0244)" fill="#1F1F1F"/>
<rect width="6.60155" height="14.5107" transform="matrix(-1 -8.60946e-08 0.173648 -0.984808 21.1484 22.4436)" fill="#1F1F1F"/>
</svg>
