<svg xmlns="http://www.w3.org/2000/svg" xmlns:xlink="http://www.w3.org/1999/xlink" width="308" zoomAndPan="magnify" viewBox="0 0 230.87999 55.5" height="74" preserveAspectRatio="xMidYMid meet" version="1.0"><defs><clipPath id="9510a5f2a2"><path d="M 0.972656 0 L 56 0 L 56 55 L 0.972656 55 Z M 0.972656 0" clip-rule="nonzero"></path></clipPath><clipPath id="c89346f03f"><path d="M 0.972656 0 L 56 0 L 56 55 L 0.972656 55 Z M 0.972656 0" clip-rule="nonzero"></path></clipPath></defs><path fill="#1f1f1f" d="M 78.355469 42.40625 C 73.804688 42.40625 72.039062 38.824219 73.246094 31.984375 L 73.402344 31.101562 C 74.609375 24.261719 77.636719 20.679688 82.1875 20.679688 C 85.804688 20.679688 87.539062 22.820312 88.078125 26.222656 L 88.53125 26.0625 C 88.210938 23.5 88.242188 21.71875 88.589844 19.738281 L 89.59375 14.035156 L 94.53125 14.035156 L 89.59375 42.046875 L 84.675781 42.046875 C 84.878906 41.003906 85.523438 39.324219 86.597656 37.023438 L 86.199219 36.863281 C 84.417969 40.40625 81.953125 42.40625 78.355469 42.40625 Z M 80.882812 39.125 C 83.667969 39.125 85.601562 36.683594 86.40625 32.121094 L 86.605469 30.980469 C 87.414062 26.402344 86.34375 23.941406 83.5625 23.941406 C 80.941406 23.941406 79.269531 26.160156 78.457031 30.78125 L 78.183594 32.324219 C 77.371094 36.925781 78.265625 39.125 80.882812 39.125 Z M 102.941406 18.476562 L 97.558594 18.476562 L 98.285156 14.355469 L 103.667969 14.355469 Z M 98.5625 42.046875 L 93.605469 42.046875 L 97.308594 21.039062 L 102.265625 21.039062 Z M 110.179688 36.585938 L 113.488281 36.964844 C 116.792969 37.34375 120.746094 38.183594 119.90625 42.945312 C 119.128906 47.367188 115.496094 49.527344 108.753906 49.527344 C 102.414062 49.527344 99.632812 47.90625 100.25 44.40625 C 100.628906 42.246094 102.03125 40.867188 104.800781 40.265625 L 104.863281 39.90625 C 103.082031 39.285156 101.980469 38.164062 102.320312 36.222656 C 102.644531 34.402344 104.070312 33.222656 106.480469 32.921875 L 106.546875 32.542969 C 104.957031 31.421875 104.324219 29.601562 104.75 27.179688 C 105.496094 22.941406 108.886719 20.539062 114.167969 20.539062 C 115.285156 20.539062 116.285156 20.640625 117.140625 20.859375 C 117.046875 17.457031 119.34375 14.816406 123.898438 14.558594 L 123.675781 19.039062 C 120 19.378906 118.789062 19.796875 118.558594 21.339844 C 120.773438 22.378906 121.699219 24.378906 121.203125 27.179688 C 120.449219 31.460938 117.085938 33.84375 111.824219 33.84375 C 110.460938 33.84375 109.292969 33.683594 108.308594 33.382812 C 106.980469 33.542969 106.40625 33.921875 106.273438 34.664062 C 106.082031 35.742188 106.875 36.203125 110.179688 36.585938 Z M 113.683594 23.28125 C 111.492188 23.28125 110.230469 24.558594 109.765625 27.179688 C 109.300781 29.820312 110.117188 31.082031 112.308594 31.082031 C 114.464844 31.082031 115.722656 29.820312 116.1875 27.179688 C 116.648438 24.558594 115.839844 23.28125 113.683594 23.28125 Z M 109.609375 46.167969 C 113.53125 46.167969 115.394531 45.265625 115.710938 43.488281 C 116.019531 41.726562 114.664062 41.226562 111.292969 40.886719 L 107.921875 40.527344 C 107.640625 40.503906 107.382812 40.464844 107.128906 40.425781 C 105.089844 41.046875 104.304688 41.90625 104.089844 43.125 C 103.714844 45.265625 105.300781 46.167969 109.609375 46.167969 Z M 131.527344 18.476562 L 126.144531 18.476562 L 126.871094 14.355469 L 132.253906 14.355469 Z M 127.148438 42.046875 L 122.191406 42.046875 L 125.894531 21.039062 L 130.851562 21.039062 Z M 136.078125 42.046875 L 131.121094 42.046875 L 136.058594 14.035156 L 141.015625 14.035156 L 139.894531 20.398438 C 139.5625 22.28125 138.980469 23.960938 137.699219 26.402344 L 138.097656 26.5625 C 140.445312 22.460938 143.15625 20.679688 146.445312 20.679688 C 150.183594 20.679688 151.746094 22.660156 151.078125 26.441406 L 148.328125 42.046875 L 143.390625 42.046875 L 145.960938 27.460938 C 146.34375 25.300781 145.570312 24.140625 143.785156 24.140625 C 141.0625 24.140625 138.71875 27.0625 137.953125 31.402344 Z M 160.582031 42.546875 C 154.6875 42.546875 152.136719 38.464844 153.320312 31.761719 L 153.398438 31.324219 C 154.585938 24.582031 158.570312 20.539062 164.460938 20.539062 C 170.351562 20.539062 172.910156 24.582031 171.722656 31.324219 L 171.644531 31.761719 C 170.460938 38.464844 166.453125 42.546875 160.582031 42.546875 Z M 161.171875 39.183594 C 163.894531 39.183594 165.617188 37.023438 166.417969 32.484375 L 166.75 30.601562 C 167.550781 26.0625 166.59375 23.878906 163.871094 23.878906 C 161.128906 23.878906 159.425781 26.0625 158.625 30.601562 L 158.292969 32.484375 C 157.492188 37.023438 158.429688 39.183594 161.171875 39.183594 Z M 178.03125 42.046875 L 173.070312 42.046875 L 176.777344 21.039062 L 181.753906 21.039062 C 181.566406 22.320312 181.121094 23.460938 179.6875 26.300781 L 180.0625 26.480469 C 182.730469 22.179688 184.964844 20.679688 187.871094 20.679688 C 191.140625 20.679688 192.265625 22.839844 190.824219 26.5 L 191.210938 26.621094 C 193.457031 22.417969 196.078125 20.679688 199.265625 20.679688 C 202.742188 20.679688 204.074219 22.578125 203.382812 26.480469 L 200.640625 42.046875 L 195.683594 42.046875 L 198.285156 27.300781 C 198.648438 25.21875 198.019531 24.179688 196.394531 24.179688 C 193.917969 24.179688 191.964844 27.179688 191.257812 31.203125 L 189.34375 42.046875 L 184.40625 42.046875 L 187 27.339844 C 187.359375 25.300781 186.707031 24.160156 185.164062 24.160156 C 182.765625 24.160156 180.671875 27.042969 179.917969 31.324219 Z M 218.351562 34.761719 L 222.996094 35.363281 C 221.421875 40.144531 217.914062 42.527344 212.796875 42.527344 C 206.921875 42.527344 204.320312 38.964844 205.464844 32.484375 L 205.792969 30.621094 C 206.9375 24.140625 210.816406 20.558594 216.8125 20.558594 C 222.398438 20.558594 224.90625 23.960938 223.839844 30.023438 C 223.671875 30.960938 223.476562 31.84375 223.195312 32.863281 L 210.316406 32.863281 L 210.242188 33.261719 C 209.535156 37.285156 210.695312 39.226562 213.539062 39.226562 C 215.835938 39.226562 217.402344 37.945312 218.351562 34.761719 Z M 216.1875 23.859375 C 213.425781 23.859375 211.671875 25.742188 210.902344 29.523438 L 219.011719 29.523438 L 219.105469 28.980469 C 219.722656 25.480469 218.730469 23.859375 216.1875 23.859375 Z M 216.1875 23.859375" fill-opacity="1" fill-rule="nonzero"></path><g clip-path="url(#9510a5f2a2)"><path fill="#d298ff" d="M 6.769531 0 L 49.316406 0 C 49.699219 0 50.074219 0.0351562 50.445312 0.109375 C 50.820312 0.183594 51.179688 0.296875 51.53125 0.441406 C 51.882812 0.585938 52.21875 0.765625 52.53125 0.976562 C 52.847656 1.1875 53.140625 1.425781 53.410156 1.695312 C 53.679688 1.964844 53.917969 2.257812 54.128906 2.570312 C 54.339844 2.886719 54.519531 3.222656 54.664062 3.574219 C 54.808594 3.921875 54.917969 4.285156 54.992188 4.660156 C 55.066406 5.03125 55.105469 5.40625 55.105469 5.789062 L 55.105469 48.335938 C 55.105469 48.714844 55.066406 49.089844 54.992188 49.464844 C 54.917969 49.835938 54.808594 50.199219 54.664062 50.550781 C 54.519531 50.898438 54.339844 51.234375 54.128906 51.550781 C 53.917969 51.867188 53.679688 52.15625 53.410156 52.425781 C 53.140625 52.695312 52.847656 52.933594 52.53125 53.144531 C 52.21875 53.359375 51.882812 53.535156 51.53125 53.679688 C 51.179688 53.828125 50.820312 53.9375 50.445312 54.011719 C 50.074219 54.085938 49.699219 54.121094 49.316406 54.121094 L 6.769531 54.121094 C 6.390625 54.121094 6.015625 54.085938 5.640625 54.011719 C 5.269531 53.9375 4.90625 53.828125 4.554688 53.679688 C 4.203125 53.535156 3.871094 53.359375 3.554688 53.144531 C 3.238281 52.933594 2.945312 52.695312 2.679688 52.425781 C 2.410156 52.15625 2.167969 51.867188 1.957031 51.550781 C 1.746094 51.234375 1.570312 50.898438 1.421875 50.550781 C 1.277344 50.199219 1.167969 49.835938 1.09375 49.464844 C 1.019531 49.089844 0.984375 48.714844 0.984375 48.335938 L 0.984375 5.789062 C 0.984375 5.40625 1.019531 5.03125 1.09375 4.660156 C 1.167969 4.285156 1.277344 3.921875 1.421875 3.574219 C 1.570312 3.222656 1.746094 2.886719 1.957031 2.570312 C 2.167969 2.257812 2.410156 1.964844 2.679688 1.695312 C 2.945312 1.425781 3.238281 1.1875 3.554688 0.976562 C 3.871094 0.765625 4.203125 0.585938 4.554688 0.441406 C 4.90625 0.296875 5.269531 0.183594 5.640625 0.109375 C 6.015625 0.0351562 6.390625 0 6.769531 0 Z M 6.769531 0" fill-opacity="1" fill-rule="nonzero"></path></g><path fill="#1f1f1f" d="M 41.625 33.148438 L 35.667969 33.148438 L 37.941406 20.253906 L 43.898438 20.253906 Z M 41.625 33.148438" fill-opacity="1" fill-rule="nonzero"></path><path fill="#1f1f1f" d="M 39.351562 46.046875 L 33.394531 46.046875 L 35.667969 33.148438 L 41.625 33.148438 Z M 39.351562 46.046875" fill-opacity="1" fill-rule="nonzero"></path><path fill="#1f1f1f" d="M 39.355469 46.015625 L 33.398438 46.015625 L 40.214844 7.355469 L 46.171875 7.355469 Z M 39.355469 46.015625" fill-opacity="1" fill-rule="nonzero"></path><path fill="#1f1f1f" d="M 17.792969 33.148438 L 11.835938 33.148438 L 14.109375 20.253906 L 20.066406 20.253906 Z M 17.792969 33.148438" fill-opacity="1" fill-rule="nonzero"></path><path fill="#1f1f1f" d="M 27.433594 46.046875 L 21.476562 46.046875 L 23.75 33.148438 L 29.707031 33.148438 Z M 27.433594 46.046875" fill-opacity="1" fill-rule="nonzero"></path><path fill="#1f1f1f" d="M 31.984375 20.253906 L 26.027344 20.253906 L 28.300781 7.359375 L 34.257812 7.359375 Z M 31.984375 20.253906" fill-opacity="1" fill-rule="nonzero"></path><path fill="#1f1f1f" d="M 15.519531 46.046875 L 9.5625 46.046875 L 11.835938 33.148438 L 17.792969 33.148438 Z M 15.519531 46.046875" fill-opacity="1" fill-rule="nonzero"></path><path fill="#1f1f1f" d="M 15.523438 46.015625 L 9.566406 46.015625 L 16.382812 7.355469 L 22.339844 7.355469 Z M 15.523438 46.015625" fill-opacity="1" fill-rule="nonzero"></path><path fill="#1f1f1f" d="M 78.355469 42.40625 C 73.804688 42.40625 72.039062 38.824219 73.246094 31.984375 L 73.402344 31.101562 C 74.609375 24.261719 77.636719 20.679688 82.1875 20.679688 C 85.804688 20.679688 87.539062 22.820312 88.078125 26.222656 L 88.53125 26.0625 C 88.210938 23.5 88.242188 21.71875 88.589844 19.738281 L 89.59375 14.035156 L 94.53125 14.035156 L 89.59375 42.046875 L 84.675781 42.046875 C 84.878906 41.003906 85.523438 39.324219 86.597656 37.023438 L 86.199219 36.863281 C 84.417969 40.40625 81.953125 42.40625 78.355469 42.40625 Z M 80.882812 39.125 C 83.667969 39.125 85.601562 36.683594 86.40625 32.121094 L 86.605469 30.980469 C 87.414062 26.402344 86.34375 23.941406 83.5625 23.941406 C 80.941406 23.941406 79.269531 26.160156 78.457031 30.78125 L 78.183594 32.324219 C 77.371094 36.925781 78.265625 39.125 80.882812 39.125 Z M 102.941406 18.476562 L 97.558594 18.476562 L 98.285156 14.355469 L 103.667969 14.355469 Z M 98.5625 42.046875 L 93.605469 42.046875 L 97.308594 21.039062 L 102.265625 21.039062 Z M 110.179688 36.585938 L 113.488281 36.964844 C 116.792969 37.34375 120.746094 38.183594 119.90625 42.945312 C 119.128906 47.367188 115.496094 49.527344 108.753906 49.527344 C 102.414062 49.527344 99.632812 47.90625 100.25 44.40625 C 100.628906 42.246094 102.03125 40.867188 104.800781 40.265625 L 104.863281 39.90625 C 103.082031 39.285156 101.980469 38.164062 102.320312 36.222656 C 102.644531 34.402344 104.070312 33.222656 106.480469 32.921875 L 106.546875 32.542969 C 104.957031 31.421875 104.324219 29.601562 104.75 27.179688 C 105.496094 22.941406 108.886719 20.539062 114.167969 20.539062 C 115.285156 20.539062 116.285156 20.640625 117.140625 20.859375 C 117.046875 17.457031 119.34375 14.816406 123.898438 14.558594 L 123.675781 19.039062 C 120 19.378906 118.789062 19.796875 118.558594 21.339844 C 120.773438 22.378906 121.699219 24.378906 121.203125 27.179688 C 120.449219 31.460938 117.085938 33.84375 111.824219 33.84375 C 110.460938 33.84375 109.292969 33.683594 108.308594 33.382812 C 106.980469 33.542969 106.40625 33.921875 106.273438 34.664062 C 106.082031 35.742188 106.875 36.203125 110.179688 36.585938 Z M 113.683594 23.28125 C 111.492188 23.28125 110.230469 24.558594 109.765625 27.179688 C 109.300781 29.820312 110.117188 31.082031 112.308594 31.082031 C 114.464844 31.082031 115.722656 29.820312 116.1875 27.179688 C 116.648438 24.558594 115.839844 23.28125 113.683594 23.28125 Z M 109.609375 46.167969 C 113.53125 46.167969 115.394531 45.265625 115.710938 43.488281 C 116.019531 41.726562 114.664062 41.226562 111.292969 40.886719 L 107.921875 40.527344 C 107.640625 40.503906 107.382812 40.464844 107.128906 40.425781 C 105.089844 41.046875 104.304688 41.90625 104.089844 43.125 C 103.714844 45.265625 105.300781 46.167969 109.609375 46.167969 Z M 131.527344 18.476562 L 126.144531 18.476562 L 126.871094 14.355469 L 132.253906 14.355469 Z M 127.148438 42.046875 L 122.191406 42.046875 L 125.894531 21.039062 L 130.851562 21.039062 Z M 136.078125 42.046875 L 131.121094 42.046875 L 136.058594 14.035156 L 141.015625 14.035156 L 139.894531 20.398438 C 139.5625 22.28125 138.980469 23.960938 137.699219 26.402344 L 138.097656 26.5625 C 140.445312 22.460938 143.15625 20.679688 146.445312 20.679688 C 150.183594 20.679688 151.746094 22.660156 151.078125 26.441406 L 148.328125 42.046875 L 143.390625 42.046875 L 145.960938 27.460938 C 146.34375 25.300781 145.570312 24.140625 143.785156 24.140625 C 141.0625 24.140625 138.71875 27.0625 137.953125 31.402344 Z M 160.582031 42.546875 C 154.6875 42.546875 152.136719 38.464844 153.320312 31.761719 L 153.398438 31.324219 C 154.585938 24.582031 158.570312 20.539062 164.460938 20.539062 C 170.351562 20.539062 172.910156 24.582031 171.722656 31.324219 L 171.644531 31.761719 C 170.460938 38.464844 166.453125 42.546875 160.582031 42.546875 Z M 161.171875 39.183594 C 163.894531 39.183594 165.617188 37.023438 166.417969 32.484375 L 166.75 30.601562 C 167.550781 26.0625 166.59375 23.878906 163.871094 23.878906 C 161.128906 23.878906 159.425781 26.0625 158.625 30.601562 L 158.292969 32.484375 C 157.492188 37.023438 158.429688 39.183594 161.171875 39.183594 Z M 178.03125 42.046875 L 173.070312 42.046875 L 176.777344 21.039062 L 181.753906 21.039062 C 181.566406 22.320312 181.121094 23.460938 179.6875 26.300781 L 180.0625 26.480469 C 182.730469 22.179688 184.964844 20.679688 187.871094 20.679688 C 191.140625 20.679688 192.265625 22.839844 190.824219 26.5 L 191.210938 26.621094 C 193.457031 22.417969 196.078125 20.679688 199.265625 20.679688 C 202.742188 20.679688 204.074219 22.578125 203.382812 26.480469 L 200.640625 42.046875 L 195.683594 42.046875 L 198.285156 27.300781 C 198.648438 25.21875 198.019531 24.179688 196.394531 24.179688 C 193.917969 24.179688 191.964844 27.179688 191.257812 31.203125 L 189.34375 42.046875 L 184.40625 42.046875 L 187 27.339844 C 187.359375 25.300781 186.707031 24.160156 185.164062 24.160156 C 182.765625 24.160156 180.671875 27.042969 179.917969 31.324219 Z M 218.351562 34.761719 L 222.996094 35.363281 C 221.421875 40.144531 217.914062 42.527344 212.796875 42.527344 C 206.921875 42.527344 204.320312 38.964844 205.464844 32.484375 L 205.792969 30.621094 C 206.9375 24.140625 210.816406 20.558594 216.8125 20.558594 C 222.398438 20.558594 224.90625 23.960938 223.839844 30.023438 C 223.671875 30.960938 223.476562 31.84375 223.195312 32.863281 L 210.316406 32.863281 L 210.242188 33.261719 C 209.535156 37.285156 210.695312 39.226562 213.539062 39.226562 C 215.835938 39.226562 217.402344 37.945312 218.351562 34.761719 Z M 216.1875 23.859375 C 213.425781 23.859375 211.671875 25.742188 210.902344 29.523438 L 219.011719 29.523438 L 219.105469 28.980469 C 219.722656 25.480469 218.730469 23.859375 216.1875 23.859375 Z M 216.1875 23.859375" fill-opacity="1" fill-rule="nonzero"></path><g clip-path="url(#c89346f03f)"><path fill="#d298ff" d="M 6.769531 0 L 49.316406 0 C 49.699219 0 50.074219 0.0351562 50.445312 0.109375 C 50.820312 0.183594 51.179688 0.296875 51.53125 0.441406 C 51.882812 0.585938 52.21875 0.765625 52.53125 0.976562 C 52.847656 1.1875 53.140625 1.425781 53.410156 1.695312 C 53.679688 1.964844 53.917969 2.257812 54.128906 2.570312 C 54.339844 2.886719 54.519531 3.222656 54.664062 3.574219 C 54.808594 3.921875 54.917969 4.285156 54.992188 4.660156 C 55.066406 5.03125 55.105469 5.40625 55.105469 5.789062 L 55.105469 48.335938 C 55.105469 48.714844 55.066406 49.089844 54.992188 49.464844 C 54.917969 49.835938 54.808594 50.199219 54.664062 50.550781 C 54.519531 50.898438 54.339844 51.234375 54.128906 51.550781 C 53.917969 51.867188 53.679688 52.15625 53.410156 52.425781 C 53.140625 52.695312 52.847656 52.933594 52.53125 53.144531 C 52.21875 53.359375 51.882812 53.535156 51.53125 53.679688 C 51.179688 53.828125 50.820312 53.9375 50.445312 54.011719 C 50.074219 54.085938 49.699219 54.121094 49.316406 54.121094 L 6.769531 54.121094 C 6.390625 54.121094 6.015625 54.085938 5.640625 54.011719 C 5.269531 53.9375 4.90625 53.828125 4.554688 53.679688 C 4.203125 53.535156 3.871094 53.359375 3.554688 53.144531 C 3.238281 52.933594 2.945312 52.695312 2.679688 52.425781 C 2.410156 52.15625 2.167969 51.867188 1.957031 51.550781 C 1.746094 51.234375 1.570312 50.898438 1.421875 50.550781 C 1.277344 50.199219 1.167969 49.835938 1.09375 49.464844 C 1.019531 49.089844 0.984375 48.714844 0.984375 48.335938 L 0.984375 5.789062 C 0.984375 5.40625 1.019531 5.03125 1.09375 4.660156 C 1.167969 4.285156 1.277344 3.921875 1.421875 3.574219 C 1.570312 3.222656 1.746094 2.886719 1.957031 2.570312 C 2.167969 2.257812 2.410156 1.964844 2.679688 1.695312 C 2.945312 1.425781 3.238281 1.1875 3.554688 0.976562 C 3.871094 0.765625 4.203125 0.585938 4.554688 0.441406 C 4.90625 0.296875 5.269531 0.183594 5.640625 0.109375 C 6.015625 0.0351562 6.390625 0 6.769531 0 Z M 6.769531 0" fill-opacity="1" fill-rule="nonzero"></path></g><path fill="#1f1f1f" d="M 41.625 33.148438 L 35.667969 33.148438 L 37.941406 20.253906 L 43.898438 20.253906 Z M 41.625 33.148438" fill-opacity="1" fill-rule="nonzero"></path><path fill="#1f1f1f" d="M 39.351562 46.046875 L 33.394531 46.046875 L 35.667969 33.148438 L 41.625 33.148438 Z M 39.351562 46.046875" fill-opacity="1" fill-rule="nonzero"></path><path fill="#1f1f1f" d="M 39.355469 46.015625 L 33.398438 46.015625 L 40.214844 7.355469 L 46.171875 7.355469 Z M 39.355469 46.015625" fill-opacity="1" fill-rule="nonzero"></path><path fill="#1f1f1f" d="M 17.792969 33.148438 L 11.835938 33.148438 L 14.109375 20.253906 L 20.066406 20.253906 Z M 17.792969 33.148438" fill-opacity="1" fill-rule="nonzero"></path><path fill="#1f1f1f" d="M 27.433594 46.046875 L 21.476562 46.046875 L 23.75 33.148438 L 29.707031 33.148438 Z M 27.433594 46.046875" fill-opacity="1" fill-rule="nonzero"></path><path fill="#1f1f1f" d="M 31.984375 20.253906 L 26.027344 20.253906 L 28.300781 7.359375 L 34.257812 7.359375 Z M 31.984375 20.253906" fill-opacity="1" fill-rule="nonzero"></path><path fill="#1f1f1f" d="M 15.519531 46.046875 L 9.5625 46.046875 L 11.835938 33.148438 L 17.792969 33.148438 Z M 15.519531 46.046875" fill-opacity="1" fill-rule="nonzero"></path><path fill="#1f1f1f" d="M 15.523438 46.015625 L 9.566406 46.015625 L 16.382812 7.355469 L 22.339844 7.355469 Z M 15.523438 46.015625" fill-opacity="1" fill-rule="nonzero"></path></svg>