<svg width="129" height="31" viewBox="0 0 129 31" fill="none" xmlns="http://www.w3.org/2000/svg">
<path d="M43.7173 23.9605C41.146 23.9605 40.1483 21.937 40.83 18.0709L40.9177 17.5735C41.5994 13.7075 43.3107 11.684 45.8819 11.684C47.9251 11.684 48.9056 12.8935 49.2096 14.8153L49.4666 14.7248C49.2855 13.2779 49.3022 12.2718 49.4996 11.1527L50.0676 7.93096H52.857L50.0664 23.757H47.2886C47.4037 23.1692 47.7663 22.2196 48.3743 20.9196L48.1492 20.8292C47.1421 22.83 45.749 23.9605 43.7173 23.9605ZM45.1461 22.1066C46.7187 22.1066 47.8113 20.7274 48.2657 18.1501L48.3794 17.5057C48.8358 14.917 48.2316 13.5266 46.659 13.5266C45.1782 13.5266 44.2338 14.7814 43.7734 17.3927L43.6199 18.2631C43.1615 20.8631 43.6654 22.1066 45.1461 22.1066ZM57.6088 10.4405H54.567L54.9776 8.11183H58.0194L57.6088 10.4405ZM55.1345 23.757H52.3337L54.4266 11.8875H57.2274L55.1345 23.757ZM61.6994 20.6709L63.567 20.8857C65.4346 21.1005 67.6696 21.5753 67.1952 24.2657C66.7547 26.7639 64.7028 27.9848 60.8919 27.9848C57.3106 27.9848 55.7387 27.0691 56.0876 25.0909C56.3028 23.87 57.0946 23.09 58.6582 22.7509L58.694 22.5474C57.6883 22.197 57.0653 21.5639 57.2586 20.4674C57.44 19.4387 58.2463 18.7718 59.6078 18.6022L59.6456 18.3874C58.7471 17.7544 58.389 16.7257 58.6302 15.3579C59.0528 12.9614 60.9679 11.6049 63.9523 11.6049C64.5836 11.6049 65.1476 11.6614 65.6308 11.7857C65.5793 9.864 66.8755 8.37183 69.4497 8.22487L69.3246 10.757C67.2475 10.9492 66.5629 11.1866 66.4323 12.057C67.6832 12.6449 68.207 13.7753 67.928 15.3579C67.5014 17.777 65.5998 19.1222 62.6268 19.1222C61.8577 19.1222 61.1964 19.0318 60.6409 18.8622C59.8903 18.9527 59.5655 19.1674 59.4918 19.5857C59.3841 20.1961 59.8319 20.4561 61.6994 20.6709ZM63.6792 13.1535C62.4395 13.1535 61.7266 13.877 61.4654 15.3579C61.2023 16.8501 61.6622 17.5622 62.9019 17.5622C64.1186 17.5622 64.8296 16.8501 65.0927 15.3579C65.3538 13.877 64.896 13.1535 63.6792 13.1535ZM61.376 26.0857C63.5914 26.0857 64.6453 25.577 64.8227 24.5709C64.9981 23.5761 64.2329 23.2935 62.3269 23.1013L60.4229 22.8979C60.2642 22.8866 60.119 22.8639 59.9737 22.8413C58.8215 23.1918 58.3799 23.6779 58.2583 24.3674C58.0451 25.577 58.9425 26.0857 61.376 26.0857ZM73.7598 10.4405H70.7179L71.1285 8.11183H74.1704L73.7598 10.4405ZM71.2855 23.757H68.4847L70.5776 11.8875H73.3784L71.2855 23.757ZM76.3306 23.757H73.5298L76.3203 7.93096H79.1211L78.4873 11.5257C78.2999 12.5883 77.9718 13.5379 77.2465 14.917L77.4716 15.0075C78.7985 12.6901 80.3304 11.684 82.1899 11.684C84.302 11.684 85.1837 12.8031 84.807 14.9396L83.2522 23.757H80.4629L81.916 15.5161C82.1313 14.2953 81.6959 13.6396 80.6858 13.6396C79.1476 13.6396 77.8235 15.2901 77.391 17.7431L76.3306 23.757ZM90.1759 24.0396C86.8471 24.0396 85.4057 21.7335 86.0734 17.9466L86.1173 17.6979C86.789 13.8883 89.0397 11.6049 92.3685 11.6049C95.6973 11.6049 97.1428 13.8883 96.471 17.6979L96.4272 17.9466C95.7594 21.7335 93.4933 24.0396 90.1759 24.0396ZM90.5108 22.1405C92.0489 22.1405 93.0218 20.9196 93.4743 18.3535L93.6616 17.2909C94.1141 14.7248 93.5738 13.4927 92.0356 13.4927C90.486 13.4927 89.5226 14.7248 89.0702 17.2909L88.8828 18.3535C88.4303 20.9196 88.9612 22.1405 90.5108 22.1405ZM100.035 23.757H97.2337L99.3266 11.8875H102.139C102.034 12.6109 101.783 13.2553 100.972 14.8605L101.184 14.9622C102.691 12.5318 103.954 11.684 105.595 11.684C107.444 11.684 108.078 12.9049 107.265 14.9735L107.483 15.0414C108.751 12.6675 110.233 11.684 112.035 11.684C113.998 11.684 114.75 12.7579 114.361 14.9622L112.81 23.757H110.01L111.479 15.4257C111.686 14.2501 111.33 13.6622 110.412 13.6622C109.012 13.6622 107.909 15.3579 107.509 17.6301L106.428 23.757H103.639L105.104 15.4483C105.307 14.2953 104.939 13.6509 104.066 13.6509C102.712 13.6509 101.529 15.2788 101.103 17.6979L100.035 23.757ZM122.817 19.6422L125.443 19.9813C124.553 22.6831 122.571 24.0283 119.679 24.0283C116.361 24.0283 114.891 22.0161 115.537 18.3535L115.722 17.3022C116.368 13.6396 118.561 11.6162 121.948 11.6162C125.104 11.6162 126.522 13.5379 125.918 16.9631C125.824 17.4944 125.713 17.9918 125.554 18.5683H118.277L118.237 18.7944C117.836 21.0666 118.492 22.1631 120.099 22.1631C121.396 22.1631 122.282 21.4396 122.817 19.6422ZM121.596 13.4814C120.035 13.4814 119.044 14.544 118.61 16.6805H123.19L123.243 16.3753C123.592 14.397 123.031 13.4814 121.596 13.4814Z" fill="white"></path>
<rect width="30.58" height="30.58" rx="3.27" fill="#D298FF"></rect>
<rect width="3.36605" height="7.3988" transform="matrix(-1 -8.60946e-08 0.173648 -0.984808 22.963 18.7303)" fill="#1F1F1F"></rect>
<rect width="3.36605" height="7.3988" transform="matrix(-1 -8.60946e-08 0.173648 -0.984808 21.6781 26.0168)" fill="#1F1F1F"></rect>
<rect width="3.36605" height="22.1796" transform="matrix(-1 -8.60946e-08 0.173648 -0.984808 21.6812 26.0001)" fill="#1F1F1F"></rect>
<rect width="3.36605" height="7.3988" transform="matrix(-1 -8.60946e-08 0.173648 -0.984808 9.49817 18.7303)" fill="#1F1F1F"></rect>
<rect width="3.36605" height="7.3988" transform="matrix(-1 -8.60946e-08 0.173648 -0.984808 14.9457 26.0168)" fill="#1F1F1F"></rect>
<rect width="3.36605" height="7.3988" transform="matrix(-1 -8.60946e-08 0.173648 -0.984808 17.5155 11.4438)" fill="#1F1F1F"></rect>
<rect width="3.36605" height="7.3988" transform="matrix(-1 -8.60946e-08 0.173648 -0.984808 8.21326 26.0168)" fill="#1F1F1F"></rect>
<rect width="3.36605" height="22.1796" transform="matrix(-1 -8.60946e-08 0.173648 -0.984808 8.2164 26.0001)" fill="#1F1F1F"></rect>
</svg>
